<svg xmlns="http://www.w3.org/2000/svg" viewBox="0 0 1000 1000" fill="#8248E5"><path d="M983.484,762.969c-.966,4.484-1.582,9.079-2.964,13.431-4.733,14.9-13.771,26.571-27.34,34.471q-58.5,34.06-117.076,67.978-42.834,24.859-85.69,49.685c-6.774,3.91-13.889,6.6-22.042,6.092a157.9,157.9,0,0,0-20.819.016c-7.422.523-13.8-1.863-19.96-5.438q-53.527-31.044-107.047-62.1c-31.841-18.475-63.815-36.724-95.475-55.5-20.3-12.042-31.4-30.093-31.612-54.006-.241-26.722-.028-53.447-.109-80.171a4.557,4.557,0,0,1,2.709-4.522q45.106-26.013,90.14-52.154c.883-.51,1.812-.939,3.275-1.691v3.517c0,24.867.1,49.734-.032,74.6-.09,17.339,5.295,32.467,17.2,45.194,5.321,5.686,11.865,9.633,18.514,13.49q50.384,29.221,100.736,58.5a66.4,66.4,0,0,0,29.436,8.74c13.249.854,25.307-2.431,36.68-9.259,33.915-20.361,68.047-40.361,101.91-60.807,17.359-10.481,27.8-25.924,30.5-46.242a63.08,63.08,0,0,0,.289-8.222c.017-41.337.084-82.675-.017-124.012-.058-23.957-10.489-42.268-31.129-54.39-35.432-20.809-70.761-41.813-106.639-61.831-19.609-10.941-40.556-11.958-60.713-.786-21.743,12.05-43.048,24.891-64.551,37.374q-70.584,40.976-141.173,81.942-65.967,38.316-131.907,76.68c-11.516,6.694-22.83,13.767-34.59,20-21.452,11.373-43.133,12.283-64.633-.188Q158.749,620.79,68.168,568.189c-9.065-5.269-18.436-10.2-26.786-16.468-16.065-12.051-24.427-28.574-24.452-48.8q-.142-118.561.035-237.123c.054-22.511,10.16-39.371,30.007-50.6,22.41-12.683,44.5-25.935,66.723-38.945q69.7-40.8,139.446-81.547c4.007-2.334,8.551-3.745,12.845-5.585h37.789c4.305,2.013,8.8,3.7,12.887,6.088q83.691,49.032,167.277,98.244c11.828,6.956,23.944,13.5,35.31,21.15,18.1,12.182,27.535,29.609,27.711,51.54.221,27.53.037,55.063.091,82.594A4.235,4.235,0,0,1,544.7,353q-45.528,26.253-90.986,52.624c-.733.424-1.522.75-2.785,1.366v-3.559c0-17.277.044-34.556-.016-51.833-.038-10.894.151-21.808-.449-32.675-.779-14.114-6.522-26.3-15.932-36.832-5.871-6.573-13.354-10.872-20.746-15.341q-41.245-24.934-82.5-49.858c-7.392-4.455-14.587-9.422-22.424-12.918-20.08-8.957-40.023-8.689-59.414,2.635-34.716,20.274-69.568,40.316-104.229,60.682-21.012,12.346-32.159,30.8-32.231,55.372-.121,41.257-.039,82.514-.017,123.771a61.511,61.511,0,0,0,.381,6.757c2.294,20.615,12.2,36.427,29.984,47.2q46.815,28.361,93.675,56.647c8.344,5.029,16.371,10.643,25.942,13.4,17.4,5.011,34.241,4.291,50.043-5.071,27.713-16.42,55.2-33.215,82.911-49.644,26.383-15.645,52.8-31.25,79.436-46.451,23.837-13.6,48.237-26.224,71.971-40,44.407-25.772,88.534-52.028,132.722-78.177,8.116-4.8,16.408-8.98,25.747-10.82,15.741-3.1,30.623-1.143,44.614,7.024q36.81,21.49,73.722,42.807,63.888,37.077,127.746,74.2c16.287,9.526,26.642,23.643,30.514,42.276.441,2.125.736,4.28,1.1,6.421Z"></path></svg>